<svg width="201" height="39" viewBox="0 0 201 39" fill="none" xmlns="http://www.w3.org/2000/svg">
<g filter="url(#filter0_d_1_2)">
<path d="M5.8 31C5.50667 31 5.26667 30.9067 5.08 30.72C4.89333 30.5333 4.8 30.2933 4.8 30V4C4.8 3.70667 4.89333 3.46667 5.08 3.28C5.26667 3.09333 5.50667 3 5.8 3H11.08C11.3467 3 11.5733 3.09333 11.76 3.28C11.9733 3.46667 12.08 3.70667 12.08 4V24.96H24.16C24.4533 24.96 24.6933 25.0667 24.88 25.28C25.0933 25.4667 25.2 25.7067 25.2 26V30C25.2 30.2933 25.0933 30.5333 24.88 30.72C24.6933 30.9067 24.4533 31 24.16 31H5.8ZM33.5938 31.4C32.0738 31.4 30.7138 31.0533 29.5138 30.36C28.3404 29.6667 27.4204 28.6533 26.7538 27.32C26.0871 25.96 25.7538 24.3067 25.7538 22.36V11.2C25.7538 10.9067 25.8471 10.6667 26.0338 10.48C26.2204 10.2933 26.4604 10.2 26.7538 10.2H31.7538C32.0471 10.2 32.2871 10.2933 32.4738 10.48C32.6604 10.6667 32.7538 10.9067 32.7538 11.2V22.12C32.7538 24.7333 33.9271 26.04 36.2738 26.04C37.3671 26.04 38.2338 25.7067 38.8738 25.04C39.5404 24.3467 39.8738 23.3733 39.8738 22.12V11.2C39.8738 10.9067 39.9671 10.6667 40.1538 10.48C40.3404 10.2933 40.5804 10.2 40.8738 10.2H45.8738C46.1671 10.2 46.4071 10.2933 46.5938 10.48C46.7804 10.6667 46.8738 10.9067 46.8738 11.2V30C46.8738 30.2933 46.7804 30.5333 46.5938 30.72C46.4071 30.9067 46.1671 31 45.8738 31H41.2338C40.9671 31 40.7271 30.9067 40.5138 30.72C40.3271 30.5333 40.2338 30.2933 40.2338 30V28.48C39.5404 29.44 38.6338 30.1733 37.5138 30.68C36.4204 31.16 35.1138 31.4 33.5938 31.4ZM50.5788 31C50.2854 31 50.0454 30.9067 49.8587 30.72C49.6721 30.5333 49.5788 30.2933 49.5788 30V11.2C49.5788 10.9067 49.6721 10.6667 49.8587 10.48C50.0454 10.2933 50.2854 10.2 50.5788 10.2H55.2988C55.5654 10.2 55.7921 10.2933 55.9788 10.48C56.1921 10.6667 56.2988 10.9067 56.2988 11.2V30C56.2988 30.2933 56.1921 30.5333 55.9788 30.72C55.7921 30.9067 55.5654 31 55.2988 31H50.5788ZM50.5388 7.2C50.2454 7.2 50.0054 7.10667 49.8188 6.92C49.6321 6.73333 49.5388 6.49333 49.5388 6.2V2.64C49.5388 2.34667 49.6321 2.10667 49.8188 1.92C50.0054 1.70667 50.2454 1.6 50.5388 1.6H55.2988C55.5921 1.6 55.8321 1.70667 56.0188 1.92C56.2321 2.10667 56.3388 2.34667 56.3388 2.64V6.2C56.3388 6.49333 56.2321 6.73333 56.0188 6.92C55.8321 7.10667 55.5921 7.2 55.2988 7.2H50.5388ZM68.2872 31.4C66.5539 31.4 65.0739 31.2133 63.8472 30.84C62.6472 30.44 61.6605 29.96 60.8872 29.4C60.1405 28.84 59.5805 28.2667 59.2072 27.68C58.8339 27.0667 58.6339 26.5467 58.6072 26.12C58.5805 25.8267 58.6739 25.5867 58.8872 25.4C59.1005 25.1867 59.3272 25.08 59.5672 25.08H64.1272C64.2072 25.08 64.2739 25.0933 64.3272 25.12C64.3805 25.1467 64.4605 25.2 64.5672 25.28C64.9139 25.4667 65.2605 25.7067 65.6072 26C65.9539 26.2667 66.3539 26.5067 66.8072 26.72C67.2605 26.9333 67.8072 27.04 68.4472 27.04C69.1939 27.04 69.8205 26.8933 70.3272 26.6C70.8339 26.3067 71.0872 25.8667 71.0872 25.28C71.0872 24.8533 70.9672 24.5067 70.7272 24.24C70.4872 23.9467 69.9939 23.6667 69.2472 23.4C68.5272 23.1333 67.4339 22.8667 65.9672 22.6C64.5805 22.28 63.3672 21.8667 62.3272 21.36C61.2872 20.8267 60.4872 20.1467 59.9272 19.32C59.3672 18.4667 59.0872 17.44 59.0872 16.24C59.0872 15.1733 59.4339 14.1467 60.1272 13.16C60.8205 12.1733 61.8339 11.3733 63.1672 10.76C64.5005 10.12 66.1405 9.8 68.0872 9.8C69.6339 9.8 70.9672 9.98667 72.0872 10.36C73.2339 10.7067 74.1939 11.16 74.9672 11.72C75.7672 12.28 76.3672 12.8533 76.7672 13.44C77.1672 14.0267 77.3805 14.56 77.4072 15.04C77.4339 15.3067 77.3539 15.5467 77.1672 15.76C76.9805 15.9467 76.7672 16.04 76.5272 16.04H72.3672C72.2605 16.04 72.1539 16.0267 72.0472 16C71.9405 15.9467 71.8472 15.8933 71.7672 15.84C71.4472 15.68 71.1272 15.4667 70.8072 15.2C70.4872 14.9333 70.1139 14.6933 69.6872 14.48C69.2605 14.2667 68.7272 14.16 68.0872 14.16C67.3672 14.16 66.8072 14.32 66.4072 14.64C66.0072 14.96 65.8072 15.3733 65.8072 15.88C65.8072 16.2267 65.9139 16.5467 66.1272 16.84C66.3672 17.1333 66.8339 17.4 67.5272 17.64C68.2472 17.88 69.3539 18.1467 70.8472 18.44C72.6872 18.7333 74.1539 19.2133 75.2472 19.88C76.3405 20.52 77.1139 21.28 77.5672 22.16C78.0205 23.0133 78.2472 23.92 78.2472 24.88C78.2472 26.16 77.8605 27.2933 77.0872 28.28C76.3405 29.2667 75.2205 30.04 73.7272 30.6C72.2339 31.1333 70.4205 31.4 68.2872 31.4ZM93.7766 31C93.3232 31 92.9632 30.88 92.6966 30.64C92.4299 30.4 92.2432 30.12 92.1366 29.8L83.9766 4.2C83.9232 4.06667 83.8966 3.94667 83.8966 3.84C83.8966 3.62667 83.9766 3.44 84.1366 3.28C84.3232 3.09333 84.5366 3 84.7766 3H89.7366C90.1632 3 90.4966 3.12 90.7366 3.36C90.9766 3.6 91.1232 3.82667 91.1766 4.04L96.8166 22.52L102.497 4.04C102.577 3.82667 102.723 3.6 102.937 3.36C103.177 3.12 103.51 3 103.937 3H108.897C109.137 3 109.337 3.09333 109.497 3.28C109.683 3.44 109.777 3.62667 109.777 3.84C109.777 3.94667 109.75 4.06667 109.697 4.2L101.537 29.8C101.43 30.12 101.243 30.4 100.977 30.64C100.737 30.88 100.377 31 99.8966 31H93.7766ZM114.967 31.4C113.527 31.4 112.234 31.1333 111.087 30.6C109.967 30.04 109.074 29.2933 108.407 28.36C107.741 27.4267 107.407 26.3733 107.407 25.2C107.407 23.3067 108.181 21.8133 109.727 20.72C111.274 19.6 113.327 18.84 115.887 18.44L120.887 17.68V17.12C120.887 16.16 120.687 15.4267 120.287 14.92C119.887 14.4133 119.154 14.16 118.087 14.16C117.341 14.16 116.727 14.3067 116.247 14.6C115.794 14.8933 115.434 15.2933 115.167 15.8C114.927 16.1467 114.594 16.32 114.167 16.32H109.687C109.394 16.32 109.167 16.24 109.007 16.08C108.847 15.8933 108.781 15.68 108.807 15.44C108.807 14.96 108.981 14.4133 109.327 13.8C109.701 13.16 110.261 12.5333 111.007 11.92C111.754 11.3067 112.714 10.8 113.887 10.4C115.061 10 116.474 9.8 118.127 9.8C119.861 9.8 121.341 10 122.567 10.4C123.794 10.8 124.781 11.36 125.527 12.08C126.301 12.8 126.874 13.6533 127.247 14.64C127.621 15.6 127.807 16.6667 127.807 17.84V30C127.807 30.2933 127.701 30.5333 127.487 30.72C127.301 30.9067 127.074 31 126.807 31H122.167C121.874 31 121.634 30.9067 121.447 30.72C121.261 30.5333 121.167 30.2933 121.167 30V28.6C120.821 29.1067 120.354 29.5733 119.767 30C119.181 30.4267 118.487 30.76 117.687 31C116.914 31.2667 116.007 31.4 114.967 31.4ZM116.847 26.84C117.621 26.84 118.314 26.68 118.927 26.36C119.567 26.0133 120.061 25.4933 120.407 24.8C120.781 24.08 120.967 23.1867 120.967 22.12V21.56L117.567 22.16C116.314 22.3733 115.394 22.7067 114.807 23.16C114.247 23.5867 113.967 24.0933 113.967 24.68C113.967 25.1333 114.101 25.52 114.367 25.84C114.634 26.16 114.981 26.4133 115.407 26.6C115.834 26.76 116.314 26.84 116.847 26.84ZM131.321 31C131.028 31 130.788 30.9067 130.601 30.72C130.414 30.5333 130.321 30.2933 130.321 30V3.6C130.321 3.30666 130.414 3.06667 130.601 2.88C130.788 2.69333 131.028 2.6 131.321 2.6H136.041C136.334 2.6 136.574 2.69333 136.761 2.88C136.948 3.06667 137.041 3.30666 137.041 3.6V30C137.041 30.2933 136.948 30.5333 136.761 30.72C136.574 30.9067 136.334 31 136.041 31H131.321ZM149.366 31.4C146.22 31.4 143.713 30.5467 141.846 28.84C139.98 27.1333 139.006 24.6 138.926 21.24C138.926 21.0533 138.926 20.8133 138.926 20.52C138.926 20.2267 138.926 20 138.926 19.84C139.006 17.7333 139.473 15.9333 140.326 14.44C141.206 12.92 142.406 11.7733 143.926 11C145.473 10.2 147.273 9.8 149.326 9.8C151.673 9.8 153.606 10.2667 155.126 11.2C156.673 12.1333 157.833 13.4 158.606 15C159.38 16.6 159.766 18.4267 159.766 20.48V21.44C159.766 21.7333 159.66 21.9733 159.446 22.16C159.26 22.3467 159.033 22.44 158.766 22.44H145.966C145.966 22.4667 145.966 22.5067 145.966 22.56C145.966 22.6133 145.966 22.6667 145.966 22.72C145.993 23.4933 146.126 24.2 146.366 24.84C146.606 25.48 146.98 25.9867 147.486 26.36C147.993 26.7333 148.606 26.92 149.326 26.92C149.86 26.92 150.3 26.84 150.646 26.68C151.02 26.4933 151.326 26.2933 151.566 26.08C151.806 25.84 151.993 25.64 152.126 25.48C152.366 25.2133 152.553 25.0533 152.686 25C152.846 24.92 153.086 24.88 153.406 24.88H158.366C158.633 24.88 158.846 24.96 159.006 25.12C159.193 25.2533 159.273 25.4533 159.246 25.72C159.22 26.1733 158.993 26.72 158.566 27.36C158.14 28 157.513 28.64 156.686 29.28C155.886 29.8933 154.873 30.4 153.646 30.8C152.42 31.2 150.993 31.4 149.366 31.4ZM145.966 18.48H152.726V18.4C152.726 17.5467 152.593 16.8 152.326 16.16C152.086 15.52 151.7 15.0267 151.166 14.68C150.66 14.3333 150.046 14.16 149.326 14.16C148.606 14.16 147.993 14.3333 147.486 14.68C147.006 15.0267 146.633 15.52 146.366 16.16C146.1 16.8 145.966 17.5467 145.966 18.4V18.48ZM162.516 31C162.223 31 161.983 30.9067 161.796 30.72C161.61 30.5333 161.516 30.2933 161.516 30V11.2C161.516 10.9333 161.61 10.7067 161.796 10.52C161.983 10.3067 162.223 10.2 162.516 10.2H167.116C167.41 10.2 167.65 10.3067 167.836 10.52C168.023 10.7067 168.116 10.9333 168.116 11.2V12.8C168.836 11.9733 169.69 11.3333 170.676 10.88C171.69 10.4267 172.823 10.2 174.076 10.2H175.836C176.103 10.2 176.33 10.2933 176.516 10.48C176.73 10.6667 176.836 10.9067 176.836 11.2V15.32C176.836 15.5867 176.73 15.8267 176.516 16.04C176.33 16.2267 176.103 16.32 175.836 16.32H171.956C170.863 16.32 170.01 16.6267 169.396 17.24C168.81 17.8267 168.516 18.6667 168.516 19.76V30C168.516 30.2933 168.41 30.5333 168.196 30.72C168.01 30.9067 167.77 31 167.476 31H162.516ZM183.569 31.4C182.129 31.4 180.835 31.1333 179.689 30.6C178.569 30.04 177.675 29.2933 177.009 28.36C176.342 27.4267 176.009 26.3733 176.009 25.2C176.009 23.3067 176.782 21.8133 178.329 20.72C179.875 19.6 181.929 18.84 184.489 18.44L189.489 17.68V17.12C189.489 16.16 189.289 15.4267 188.889 14.92C188.489 14.4133 187.755 14.16 186.689 14.16C185.942 14.16 185.329 14.3067 184.849 14.6C184.395 14.8933 184.035 15.2933 183.769 15.8C183.529 16.1467 183.195 16.32 182.769 16.32H178.289C177.995 16.32 177.769 16.24 177.609 16.08C177.449 15.8933 177.382 15.68 177.409 15.44C177.409 14.96 177.582 14.4133 177.929 13.8C178.302 13.16 178.862 12.5333 179.609 11.92C180.355 11.3067 181.315 10.8 182.489 10.4C183.662 10 185.075 9.8 186.729 9.8C188.462 9.8 189.942 10 191.169 10.4C192.395 10.8 193.382 11.36 194.129 12.08C194.902 12.8 195.475 13.6533 195.849 14.64C196.222 15.6 196.409 16.6667 196.409 17.84V30C196.409 30.2933 196.302 30.5333 196.089 30.72C195.902 30.9067 195.675 31 195.409 31H190.769C190.475 31 190.235 30.9067 190.049 30.72C189.862 30.5333 189.769 30.2933 189.769 30V28.6C189.422 29.1067 188.955 29.5733 188.369 30C187.782 30.4267 187.089 30.76 186.289 31C185.515 31.2667 184.609 31.4 183.569 31.4ZM185.449 26.84C186.222 26.84 186.915 26.68 187.529 26.36C188.169 26.0133 188.662 25.4933 189.009 24.8C189.382 24.08 189.569 23.1867 189.569 22.12V21.56L186.169 22.16C184.915 22.3733 183.995 22.7067 183.409 23.16C182.849 23.5867 182.569 24.0933 182.569 24.68C182.569 25.1333 182.702 25.52 182.969 25.84C183.235 26.16 183.582 26.4133 184.009 26.6C184.435 26.76 184.915 26.84 185.449 26.84Z" fill="#093A3E"/>
</g>
<defs>
<filter id="filter0_d_1_2" x="0.799988" y="0.600006" width="199.609" height="37.8" filterUnits="userSpaceOnUse" color-interpolation-filters="sRGB">
<feFlood flood-opacity="0" result="BackgroundImageFix"/>
<feColorMatrix in="SourceAlpha" type="matrix" values="0 0 0 0 0 0 0 0 0 0 0 0 0 0 0 0 0 0 127 0" result="hardAlpha"/>
<feOffset dy="3"/>
<feGaussianBlur stdDeviation="2"/>
<feComposite in2="hardAlpha" operator="out"/>
<feColorMatrix type="matrix" values="0 0 0 0 0 0 0 0 0 0 0 0 0 0 0 0 0 0 0.25 0"/>
<feBlend mode="normal" in2="BackgroundImageFix" result="effect1_dropShadow_1_2"/>
<feBlend mode="normal" in="SourceGraphic" in2="effect1_dropShadow_1_2" result="shape"/>
</filter>
</defs>
</svg>
